<svg xmlns="http://www.w3.org/2000/svg" width="210mm" height="227mm" viewBox="70 0 210 297"><path d="M116.379 273.319c-1.964-.248-3.002-1.234-4.331-2.782-1.198-1.762-2.231-3.776-2.616-5.976-.065-.376-.077-.761-.116-1.142-.151-2.264.43-3.658 1.807-5.253.198-.168.387-.35.595-.503.208-.154.864-.56.651-.414-.963.661-1.981 1.228-2.902 1.96-.212.17.494-.181.747-.246.73-.188.833-.144 1.59-.156 2.139.323 4.028 1.615 5.727 3.034 1.779 1.532 2.654 3.73 3.37 6.036.565 1.84.606 3.756.47 5.67-.186 1.919-.733 3.742-1.389 5.515-.611 1.666-1.542 3.001-2.594 4.331-.88 1.018-1.948 1.8-3.023 2.534-1.222.828-3.942 2.751 1.527-.949.235-.158-.486.283-.732.418-.239.13-.48.253-.722.377-.234.12-.47.235-.704.352a26.716 26.716 0 0 1-4.542 1.672c-1.348.34-2.73.417-4.106.465-1.583.127-3.108-.319-4.61-.827-2.012-.698-3.817-1.94-5.565-3.225-1.018-.842-2.012-1.755-2.82-2.853-.475-.647-.692-1.083-1.094-1.796-1.142-2.115-1.887-4.453-2.535-6.803-.735-2.607-.983-5.32-1.13-8.033-.156-2.513.025-5.02.418-7.493.39-2.094 1.008-4.12 1.69-6.113.743-2.25 1.712-4.376 2.742-6.475 1.122-2.151 2.445-4.159 3.77-6.157 1.077-1.81 2.141-3.627 3.227-5.43.969-1.845 2.073-3.588 3.168-5.34.7-1.143 1.511-2.197 2.177-3.365.223-.389.7-1.328.903-1.724.905-1.702 1.557-3.551 2.115-5.424.689-2.05 1.125-4.194 1.556-6.326.392-2.012.6-4.048.724-6.1a44.549 44.549 0 0 0-.435-6.531 90.986 90.986 0 0 0-1.247-6.64c-.542-2.537-1.312-4.99-2.23-7.386-1.248-3.212-2.978-6.144-4.627-9.109-2.292-4.037-4.811-7.906-7.36-11.744-1.686-2.569-3.607-4.953-5.903-6.854l-3.528 2.512c2.368 1.75 4.31 4.085 6.014 6.61 2.58 3.793 5.078 7.665 7.324 11.717 1.596 2.976 3.267 5.922 4.476 9.129.897 2.38 1.68 4.805 2.185 7.33.472 2.185.879 4.39 1.218 6.605.257 2.137.445 4.293.38 6.452a47.534 47.534 0 0 1-.754 6.036c-.426 2.118-.87 4.241-1.568 6.271-.613 1.836-1.232 3.678-2.16 5.351-.928 1.76-1.99 3.41-3.081 5.047-1.097 1.754-2.18 3.514-3.166 5.349-1.086 1.798-2.13 3.626-3.233 5.41-1.318 2.001-2.598 4.04-3.708 6.196-1.034 2.126-2.025 4.272-2.761 6.554-.682 2.013-1.284 4.066-1.64 6.185-.368 2.506-.511 5.039-.35 7.577.165 2.75.437 5.49 1.164 8.135.66 2.39 1.427 4.757 2.57 6.918.411.75.625 1.199 1.118 1.879.823 1.137 1.855 2.063 2.893 2.94 1.776 1.298 3.592 2.59 5.616 3.346 1.509.531 3.04 1.094 4.644.985 1.399-.028 2.804-.101 4.178-.41 1.57-.371 3.097-.934 4.588-1.594.728-.36 1.499-.686 2.194-1.122 1.908-1.195 3.824-2.399 5.676-3.706 1.07-.767 2.128-1.583 2.97-2.66 1.028-1.337 1.903-2.799 2.487-4.447.65-1.825 1.21-3.699 1.37-5.667.116-1.968-.015-3.928-.617-5.801-.764-2.376-1.637-4.688-3.472-6.286-1.746-1.463-3.696-2.763-5.845-3.294-.286-.018-.572-.063-.858-.054-2.273.068-3.896 1.675-5.898 2.94-.22.14-.432.3-.632.474-.199.173-.375.375-.562.563-1.319 1.747-1.824 3.28-1.612 5.596.051.399.077.803.153 1.197.44 2.259 1.528 4.312 2.73 6.157 1.27 1.55 2.437 2.756 4.344 3.152l3.512-2.767z" style="fill:maroon;stroke-width:.22962"/><path d="M73.925 147.076c2.311.235 4.56.843 6.756 1.58 2.418.858 4.734 1.951 7.047 3.052 1.8.836 3.526 1.812 5.313 2.676 1.783.862 3.687 1.408 5.597 1.905 2.123.504 4.282.836 6.466.795 4.27-.284 6.955-2.372 10.68-4.572 1.665-1.43 2.321-3.4 2.687-5.489.389-1.901-.048-3.741-.547-5.569-.502-2.077-2.084-3.3-3.778-4.43-1.429-.901-2.898-1.796-4.487-2.393-.838-.315-1.317-.392-2.173-.583-2.168-.396-4.209.126-6.224.892-2.327 1.05-4.497 2.399-6.796 3.51-2.305.99-4.637 1.918-6.975 2.829-1.831.741-3.741 1.23-5.68 1.585-1.437.19-.726.123-2.13.205l-4.114 3.017c1.434-.048.712 0 2.164-.151 1.963-.308 3.902-.775 5.752-1.51 2.358-.914 4.693-1.885 7.037-2.831 2.302-1.079 4.475-2.382 6.748-3.515 1.94-.803 3.907-1.399 6.033-1.115.798.144 1.356.215 2.134.481 1.584.541 3.034 1.431 4.449 2.305 1.586 1.075 3.05 2.21 3.528 4.158.49 1.759.859 3.521.467 5.347-.427 2.071-1.097 3.8-2.849 5.116 1.169-.648 2.348-1.279 3.506-1.945.315-.181-.643.337-.973.488a13.285 13.285 0 0 1-4.352 1.164c-2.144.111-4.279-.206-6.369-.68-1.877-.502-3.77-.997-5.531-1.834-1.795-.853-3.525-1.827-5.322-2.674-2.352-1.095-4.726-2.13-7.156-3.043-2.172-.778-4.382-1.42-6.663-1.791l-4.245 3.02z" style="fill:maroon;stroke-width:.264583"/><path d="M116.378 19.638c-1.963.248-3.002 1.235-4.33 2.783-1.198 1.761-2.232 3.775-2.616 5.975-.066.376-.077.761-.116 1.142-.152 2.265.43 3.658 1.806 5.254.199.167.388.35.595.502.209.154.865.561.652.415-.963-.662-1.981-1.229-2.902-1.961-.212-.169.494.181.747.247.73.188.833.143 1.59.156 2.138-.324 4.027-1.615 5.727-3.035 1.778-1.532 2.653-3.73 3.37-6.036.565-1.84.606-3.755.47-5.67-.186-1.918-.733-3.742-1.39-5.515-.61-1.666-1.541-3-2.594-4.33-.88-1.019-1.948-1.8-3.023-2.534-1.221-.829-3.942-2.752 1.528.948.235.159-.486-.283-.732-.417-.239-.13-.48-.254-.722-.377-.234-.12-.47-.235-.705-.353a26.717 26.717 0 0 0-4.541-1.671c-1.348-.34-2.73-.417-4.106-.465-1.584-.127-3.109.318-4.61.827-2.012.697-3.817 1.939-5.566 3.225-1.018.841-2.011 1.754-2.82 2.853-.475.646-.691 1.082-1.093 1.795-1.142 2.115-1.888 4.453-2.536 6.804-.734 2.606-.983 5.319-1.13 8.032-.155 2.513.026 5.02.418 7.494.39 2.093 1.009 4.119 1.69 6.113.743 2.25 1.713 4.376 2.742 6.474 1.123 2.151 2.445 4.159 3.77 6.157 1.077 1.81 2.142 3.627 3.228 5.43.968 1.845 2.073 3.589 3.168 5.34.699 1.143 1.51 2.198 2.177 3.365.222.39.7 1.328.902 1.724.905 1.702 1.558 3.551 2.115 5.424.69 2.05 1.126 4.194 1.556 6.326.392 2.012.6 4.048.725 6.1a44.562 44.562 0 0 1-.435 6.531 90.986 90.986 0 0 1-1.247 6.64c-.542 2.537-1.313 4.991-2.23 7.386-1.248 3.212-2.979 6.144-4.627 9.109-2.292 4.037-4.811 7.906-7.36 11.744-1.687 2.569-3.608 4.953-5.903 6.854l-3.528-2.512c2.367-1.75 4.31-4.085 6.013-6.61 2.58-3.793 5.078-7.665 7.324-11.717 1.597-2.976 3.268-5.922 4.477-9.129.896-2.38 1.68-4.804 2.185-7.33.471-2.184.879-4.39 1.218-6.605.256-2.137.444-4.293.379-6.452a47.531 47.531 0 0 0-.753-6.036c-.426-2.117-.87-4.241-1.568-6.27-.614-1.837-1.233-3.678-2.16-5.352-.928-1.76-1.99-3.409-3.082-5.047-1.096-1.753-2.179-3.514-3.166-5.349-1.085-1.798-2.129-3.626-3.233-5.41-1.317-2.001-2.598-4.04-3.707-6.195-1.034-2.126-2.026-4.272-2.762-6.554-.681-2.013-1.283-4.066-1.639-6.186-.368-2.506-.512-5.038-.35-7.577.165-2.749.437-5.489 1.163-8.135.66-2.39 1.427-4.757 2.571-6.918.411-.75.625-1.198 1.118-1.879.823-1.136 1.855-2.063 2.892-2.94 1.776-1.297 3.593-2.59 5.616-3.345 1.51-.532 3.04-1.094 4.645-.985 1.398.028 2.803.1 4.178.409 1.57.372 3.097.934 4.588 1.594.728.36 1.499.687 2.194 1.122 1.908 1.196 3.823 2.4 5.675 3.706 1.07.768 2.129 1.583 2.971 2.66 1.028 1.338 1.902 2.8 2.487 4.448.65 1.824 1.21 3.698 1.37 5.667.116 1.968-.016 3.927-.618 5.8-.763 2.376-1.637 4.688-3.471 6.286-1.747 1.463-3.696 2.764-5.846 3.295-.286.018-.571.062-.857.054-2.273-.069-3.896-1.676-5.899-2.941-.22-.14-.431-.3-.631-.474-.199-.172-.375-.375-.563-.563-1.318-1.746-1.824-3.28-1.611-5.595.05-.4.076-.804.153-1.198.439-2.258 1.527-4.311 2.73-6.156 1.269-1.551 2.436-2.757 4.344-3.153l3.511 2.768z" style="fill:maroon;stroke-width:.229619"/></svg>